<svg width="195" height="41" viewBox="0 0 195 41" fill="none" xmlns="http://www.w3.org/2000/svg">
<g clip-path="url(#clip0_2717_4053)">
<path d="M17.1468 13.7061H1.18253C0.473014 13.7061 0 14.1787 0 14.8876V22.2133C0 22.9222 0.473014 23.3948 1.18253 23.3948H20.4579C21.7586 23.3948 22.8229 24.2219 23.2959 25.4035C23.6507 26.585 24.8332 27.4121 26.134 27.4121H33.111C33.584 27.4121 34.057 27.0576 34.1753 26.585L36.6586 19.2594C36.8951 18.5504 36.3038 17.7233 35.5943 17.7233H22.7047C21.4039 17.7233 20.3396 16.8963 19.8666 15.7147C19.5118 14.415 18.4475 13.7061 17.1468 13.7061Z" fill="white"/>
<path d="M22.1134 27.2939H1.18253C0.473014 27.2939 0 27.7666 0 28.4755V33.438C0 35.4467 1.5373 36.9827 3.5476 36.9827H25.4245C26.7253 36.9827 27.7896 37.8098 28.2626 38.9914L28.9721 41L31.8102 32.8473C32.0467 32.1383 31.4554 31.3112 30.7459 31.3112H27.7896C26.4888 31.3112 25.4245 30.4841 24.9515 29.3026C24.4785 28.121 23.4142 27.2939 22.1134 27.2939Z" fill="white"/>
<path d="M15.0182 2.00865C14.6634 0.827089 13.4809 0 12.1801 0H3.5476C1.5373 0 0 1.53602 0 3.54467V8.5072C0 9.21614 0.473014 9.68876 1.18253 9.68876H15.4912C16.792 9.68876 17.8563 10.5158 18.3293 11.6974C18.6841 12.879 19.8666 13.7061 21.1674 13.7061H35.5943C37.6046 13.7061 39.3784 12.4063 40.0879 10.5158L42.3347 4.01729H17.738C16.5555 4.01729 15.373 3.1902 15.0182 2.00865Z" fill="white"/>
<path d="M60.4275 16.8961V19.2593H66.4584V23.8673H60.4275V26.5849H67.2862V31.4293H54.2783V12.0518H67.1679V16.8961H60.4275Z" fill="white"/>
<path d="M84.4331 17.7233C85.3791 18.9048 85.9703 20.559 85.9703 22.5676V31.4293H79.9394V23.2766C79.9394 22.5676 79.7029 21.9769 79.3482 21.5042C78.9934 21.0316 78.4021 20.9135 77.8109 20.9135C77.1013 20.9135 76.6283 21.1498 76.2736 21.5042C75.9188 21.9769 75.6823 22.5676 75.6823 23.2766V31.4293H69.6514V16.0691H75.6823V18.4322C76.1553 17.7233 76.7466 17.1325 77.5743 16.6599C78.4021 16.1872 79.3482 15.9509 80.4124 15.9509C82.068 15.9509 83.3688 16.5417 84.4331 17.7233Z" fill="white"/>
<path d="M96.613 16.4235C97.3225 16.778 97.9138 17.3688 98.2685 18.0777V15.9509H104.299V31.0748C104.299 32.4927 104.063 33.7924 103.472 34.974C102.88 36.1555 102.053 37.1008 100.87 37.8097C99.6876 38.5186 98.1503 38.8731 96.3765 38.8731C93.8932 38.8731 92.0011 38.2823 90.4638 37.1008C89.0448 35.9192 88.217 34.3832 87.9805 32.3745H93.8932C94.0114 33.2016 94.7209 33.5561 95.9035 33.5561C96.613 33.5561 97.2043 33.3198 97.559 32.9653C97.9138 32.6108 98.1503 31.9019 98.1503 30.9567V29.1843C97.7955 29.8933 97.2043 30.484 96.4947 30.8385C95.7852 31.193 94.9575 31.4293 93.8932 31.4293C92.7106 31.4293 91.6464 31.0748 90.7003 30.484C89.7543 29.8933 88.9265 28.948 88.4535 27.7665C87.8622 26.5849 87.6257 25.167 87.6257 23.5129C87.6257 21.8587 87.8622 20.4408 88.4535 19.2593C89.0448 18.0777 89.7543 17.1325 90.7003 16.5417C91.6464 15.9509 92.7106 15.5964 93.8932 15.5964C95.0757 15.8327 95.9035 16.0691 96.613 16.4235ZM97.6773 21.7405C97.2043 21.2679 96.7313 21.0316 96.0217 21.0316C95.3122 21.0316 94.8392 21.2679 94.3662 21.7405C93.8932 22.2131 93.7749 22.8039 93.7749 23.631C93.7749 24.4581 94.0114 25.0489 94.3662 25.5215C94.8392 25.9941 95.3122 26.2304 96.0217 26.2304C96.7313 26.2304 97.2043 25.9941 97.6773 25.5215C98.1503 25.0489 98.2685 24.4581 98.2685 23.631C98.2685 22.9221 98.032 22.2131 97.6773 21.7405Z" fill="white"/>
<path d="M126.531 12.0518L120.027 31.3111H112.222L105.719 12.0518H112.104L116.125 25.2852L120.027 12.0518H126.531Z" fill="white"/>
<path d="M128.423 13.9423C127.832 13.3515 127.477 12.6426 127.477 11.8155C127.477 10.9884 127.832 10.2794 128.423 9.68866C129.015 9.09788 129.961 8.86157 130.907 8.86157C131.971 8.86157 132.799 9.09788 133.39 9.68866C133.981 10.2794 134.336 10.9884 134.336 11.8155C134.336 12.6426 133.981 13.3515 133.39 13.9423C132.799 14.533 131.971 14.7694 130.907 14.7694C129.842 14.7694 129.015 14.533 128.423 13.9423ZM133.863 15.9509V31.3111H127.832V15.9509H133.863Z" fill="white"/>
<path d="M139.657 30.8385C138.593 30.3659 137.647 29.657 137.056 28.8299C136.346 28.0028 135.991 27.0575 135.991 25.9941H141.786C141.904 26.4668 142.022 26.8212 142.377 27.0575C142.732 27.2939 143.087 27.412 143.56 27.412C143.914 27.412 144.151 27.2939 144.269 27.1757C144.506 27.0575 144.506 26.8212 144.506 26.7031C144.506 26.3486 144.269 26.1123 143.914 25.9941C143.56 25.876 142.85 25.6397 142.022 25.5215C140.958 25.2852 140.012 25.0489 139.303 24.8126C138.593 24.5763 138.002 24.1037 137.41 23.5129C136.819 22.9221 136.583 22.095 136.583 20.9135C136.583 19.9682 136.819 19.1411 137.292 18.314C137.765 17.4869 138.475 16.8962 139.539 16.5417C140.485 16.0691 141.668 15.8328 143.087 15.8328C145.215 15.8328 146.753 16.3054 147.935 17.3688C149.118 18.4322 149.827 19.7319 150.064 21.3861H144.742C144.624 20.9135 144.506 20.6771 144.151 20.4408C143.914 20.2045 143.441 20.0864 142.968 20.0864C142.614 20.0864 142.377 20.2045 142.259 20.2045C142.141 20.3227 142.022 20.559 142.022 20.6771C142.022 21.0316 142.259 21.2679 142.614 21.3861C142.968 21.5042 143.56 21.7405 144.387 21.8587C145.452 22.095 146.398 22.3313 147.226 22.5676C147.935 22.8039 148.645 23.2766 149.236 23.9855C149.827 24.6944 150.064 25.5215 150.064 26.7031C150.064 27.6483 149.827 28.4754 149.236 29.1843C148.763 29.8933 147.935 30.4841 146.989 30.9567C146.043 31.4293 144.86 31.5475 143.56 31.5475C142.022 31.5475 140.722 31.3111 139.657 30.8385Z" fill="white"/>
<path d="M152.902 13.9423C152.311 13.3515 151.956 12.6426 151.956 11.8155C151.956 10.9884 152.311 10.2794 152.902 9.68866C153.493 9.09788 154.439 8.86157 155.385 8.86157C156.449 8.86157 157.277 9.09788 157.868 9.68866C158.46 10.2794 158.815 10.9884 158.815 11.8155C158.815 12.6426 158.46 13.3515 157.868 13.9423C157.277 14.533 156.449 14.7694 155.385 14.7694C154.439 14.7694 153.611 14.533 152.902 13.9423ZM158.46 15.9509V31.3111H152.429V15.9509H158.46Z" fill="white"/>
<path d="M164.372 30.6022C163.19 30.0114 162.126 29.0662 161.416 27.8846C160.707 26.7031 160.352 25.2852 160.352 23.7492C160.352 22.095 160.707 20.7953 161.416 19.6138C162.126 18.4322 163.072 17.487 164.372 16.8962C165.555 16.3054 166.974 15.9509 168.511 15.9509C170.049 15.9509 171.468 16.3054 172.65 16.8962C173.833 17.487 174.897 18.4322 175.607 19.6138C176.316 20.7953 176.671 22.2132 176.671 23.7492C176.671 25.4034 176.316 26.7031 175.607 27.8846C174.897 29.0662 173.951 30.0114 172.65 30.6022C171.468 31.193 170.049 31.5475 168.511 31.5475C166.974 31.5475 165.555 31.3112 164.372 30.6022ZM169.93 25.6397C170.285 25.1671 170.522 24.5763 170.522 23.631C170.522 22.804 170.285 22.095 169.93 21.6224C169.576 21.1498 169.103 20.9135 168.511 20.9135C167.92 20.9135 167.447 21.1498 167.092 21.6224C166.737 22.095 166.501 22.6858 166.501 23.631C166.501 24.4581 166.737 25.1671 167.092 25.6397C167.447 26.1123 167.92 26.3486 168.511 26.3486C169.103 26.3486 169.576 26.1123 169.93 25.6397Z" fill="white"/>
<path d="M193.463 17.7233C194.409 18.9048 195 20.559 195 22.5676V31.4293H188.969V23.2766C188.969 22.5676 188.733 21.9769 188.378 21.5042C188.023 21.0316 187.432 20.9135 186.84 20.9135C186.131 20.9135 185.658 21.1498 185.303 21.5042C184.948 21.9769 184.712 22.5676 184.712 23.2766V31.4293H178.563V16.0691H184.594V18.4322C185.067 17.7233 185.658 17.1325 186.486 16.6599C187.313 16.1872 188.26 15.9509 189.324 15.9509C191.098 15.9509 192.517 16.5417 193.463 17.7233Z" fill="white"/>
</g>
<defs>
<clipPath id="clip0_2717_4053">
<rect width="195" height="41" fill="white"/>
</clipPath>
</defs>
</svg>
